<svg width="41" height="32" viewBox="0 0 41 32" fill="none" xmlns="http://www.w3.org/2000/svg">
<path d="M34.731 2.66886C32.0421 1.4057 29.1976 0.508172 26.2725 0C25.9081 0.661387 25.4824 1.55095 25.1888 2.25865C22.0351 1.78251 18.9102 1.78251 15.8144 2.25865C15.521 1.55112 15.0857 0.661387 14.718 0C11.79 0.508407 8.94301 1.40822 6.25293 2.67546C0.899869 10.7975 -0.551307 18.7176 0.174201 26.5256C3.72471 29.1877 7.1655 30.8049 10.5483 31.8632C11.389 30.7023 12.1322 29.4734 12.7702 28.1889C11.5556 27.7247 10.3847 27.1525 9.2714 26.4793C9.56437 26.2612 9.85044 26.034 10.1292 25.7979C16.8753 28.9661 24.2053 28.9661 30.871 25.7979C31.151 26.0325 31.437 26.2596 31.7287 26.4793C30.6136 27.1543 29.4405 27.7276 28.2235 28.1923C28.8651 29.482 29.6069 30.7121 30.4453 31.8664C33.8314 30.8083 37.2754 29.1911 40.8259 26.5256C41.6773 17.4743 39.3717 9.62669 34.731 2.6687V2.66886ZM13.6893 21.7238C11.6641 21.7238 10.0033 19.8255 10.0033 17.514C10.0033 15.2024 11.6287 13.3009 13.6893 13.3009C15.75 13.3009 17.4107 15.199 17.3753 17.514C17.3785 19.8255 15.75 21.7238 13.6893 21.7238ZM27.3108 21.7238C25.2856 21.7238 23.6249 19.8255 23.6249 17.514C23.6249 15.2024 25.2502 13.3009 27.3108 13.3009C29.3715 13.3009 31.0322 15.199 30.9968 17.514C30.9968 19.8255 29.3715 21.7238 27.3108 21.7238Z" fill="#5865F2"/>
</svg>
